<svg width="24" height="24" viewBox="0 0 24 24" fill="none" xmlns="http://www.w3.org/2000/svg">
<path d="M19.5122 5.41383C21.9782 9.06192 23.196 13.1769 22.7408 17.9141C22.7389 17.9342 22.7285 17.9525 22.7121 17.9646C20.8447 19.3444 19.0354 20.1817 17.2515 20.7369C17.2377 20.7412 17.2227 20.741 17.209 20.7363C17.1953 20.7316 17.1833 20.7227 17.1748 20.7109C16.7627 20.1339 16.3882 19.5256 16.0602 18.8868C16.0413 18.8492 16.0586 18.8039 16.0973 18.7891C16.692 18.5636 17.2575 18.2934 17.8015 17.9734C17.8443 17.9481 17.8471 17.8864 17.8075 17.8567C17.692 17.7705 17.5777 17.6798 17.4682 17.5892C17.4478 17.5725 17.4202 17.5692 17.397 17.5804C13.8655 19.2213 9.99691 19.2213 6.42369 17.5804C6.40047 17.57 6.37291 17.5736 6.35298 17.59C6.24384 17.6807 6.1292 17.7705 6.01485 17.8567C5.97526 17.8864 5.97851 17.9481 6.02166 17.9734C6.56561 18.2873 7.13114 18.5636 7.72501 18.7902C7.7635 18.805 7.78178 18.8492 7.76267 18.8868C7.44172 19.5264 7.06724 20.1347 6.64747 20.7117C6.62919 20.735 6.59916 20.7457 6.57078 20.7369C4.79534 20.1817 2.98608 19.3444 1.11864 17.9646C1.1031 17.9525 1.0919 17.9333 1.09026 17.9133C0.709793 13.8156 1.48521 9.66662 4.31579 5.41301C4.32264 5.40172 4.33302 5.39294 4.34499 5.38773C5.73782 4.74455 7.22992 4.27139 8.78948 4.00117C8.81786 3.99678 8.84625 4.00995 8.86096 4.03522C9.05366 4.37848 9.27393 4.81873 9.42298 5.17849C11.0668 4.92582 12.7364 4.92582 14.4147 5.17849C14.5637 4.82641 14.7763 4.37848 14.9682 4.03522C14.975 4.0227 14.9856 4.01264 14.9984 4.00652C15.0113 4.00039 15.0257 3.99852 15.0397 4.00117C16.6 4.27221 18.0922 4.74537 19.4839 5.38773C19.4961 5.39294 19.5062 5.40172 19.5122 5.41383ZM10.2587 13.2049C10.2759 11.9935 9.39811 10.9911 8.2963 10.9911C7.20345 10.9911 6.33415 11.9847 6.33415 13.2049C6.33415 14.4247 7.22064 15.4183 8.2963 15.4183C9.38938 15.4183 10.2587 14.4247 10.2587 13.2049ZM17.5138 13.2049C17.531 11.9935 16.6532 10.9911 15.5517 10.9911C14.4586 10.9911 13.5893 11.9847 13.5893 13.2049C13.5893 14.4247 14.4758 15.4183 15.5517 15.4183C16.6532 15.4183 17.5138 14.4247 17.5138 13.2049Z" fill="#5865F2"/>
</svg>
