<svg width="368" height="98" viewBox="0 0 368 98" fill="none" xmlns="http://www.w3.org/2000/svg">
<path d="M17.1462 81.3142C9.68388 81.3142 4.72801 78.0957 4.12989 72.855H9.76932C10.3674 75.276 13.3011 76.8425 17.2316 76.8425C22.3584 76.8425 25.1781 74.2791 25.1781 69.6081V64.4244H24.6369C23.4122 67.7567 19.9089 69.8359 15.3518 69.8359C8.20281 69.8359 3.58873 64.7092 3.58873 56.6203V51.3226C3.58873 43.2053 8.2313 38.107 15.5512 38.107C20.0513 38.107 23.4692 40.1577 24.7224 43.5471H25.2635V38.6197H30.903V69.6366C30.903 76.9279 25.7477 81.3142 17.1462 81.3142ZM9.39906 56.0791C9.39906 61.3768 12.4751 64.7946 17.2886 64.7946C22.0735 64.7946 25.1781 61.3768 25.1781 56.0791V51.7783C25.1781 46.4522 22.0735 43.0629 17.2886 43.0629C12.4751 43.0629 9.39906 46.4807 9.39906 51.7783V56.0791ZM54.0873 70.2632C45.7136 70.2632 40.3875 64.9085 40.3875 56.5064V51.8068C40.3875 43.3762 45.7136 38.05 54.0873 38.05C62.461 38.05 67.7871 43.3762 67.7871 51.8068V56.5064C67.7871 64.9085 62.461 70.2632 54.0873 70.2632ZM54.0873 42.892C49.1314 42.892 46.0269 46.4522 46.0269 52.2056V56.1076C46.0269 61.861 49.1314 65.4212 54.0873 65.4212C59.0432 65.4212 62.1477 61.861 62.1477 56.1076V52.2056C62.1477 46.4522 59.0432 42.892 54.0873 42.892ZM89.2626 81.3142C81.8003 81.3142 76.8444 78.0957 76.2463 72.855H81.8857C82.4839 75.276 85.4175 76.8425 89.348 76.8425C94.4748 76.8425 97.2945 74.2791 97.2945 69.6081V64.4244H96.7533C95.5286 67.7567 92.0253 69.8359 87.4682 69.8359C80.3192 69.8359 75.7051 64.7092 75.7051 56.6203V51.3226C75.7051 43.2053 80.3477 38.107 87.6676 38.107C92.1677 38.107 95.5856 40.1577 96.8388 43.5471H97.3799V38.6197H103.019V69.6366C103.019 76.9279 97.8641 81.3142 89.2626 81.3142ZM81.5155 56.0791C81.5155 61.3768 84.5915 64.7946 89.405 64.7946C94.19 64.7946 97.2945 61.3768 97.2945 56.0791V51.7783C97.2945 46.4522 94.19 43.0629 89.405 43.0629C84.5915 43.0629 81.5155 46.4807 81.5155 51.7783V56.0791ZM126.204 70.2632C117.83 70.2632 112.504 64.9085 112.504 56.5064V51.8068C112.504 43.3762 117.83 38.05 126.204 38.05C134.577 38.05 139.904 43.3762 139.904 51.8068V56.5064C139.904 64.9085 134.577 70.2632 126.204 70.2632ZM126.204 42.892C121.248 42.892 118.143 46.4522 118.143 52.2056V56.1076C118.143 61.861 121.248 65.4212 126.204 65.4212C131.16 65.4212 134.264 61.861 134.264 56.1076V52.2056C134.264 46.4522 131.16 42.892 126.204 42.892ZM175.876 69.665H149.815V65.051H160.211V31.1574H150.043V26.5148H165.908V65.051H175.876V69.665ZM198.32 69.9499C195.301 69.9499 192.852 67.415 192.852 64.3674C192.852 61.2913 195.301 58.7849 198.32 58.7849C201.339 58.7849 203.789 61.2913 203.789 64.3674C203.789 67.415 201.339 69.9499 198.32 69.9499ZM247.651 48.6168H242.012C241.47 45.0281 238.679 42.892 234.891 42.892C229.85 42.892 227.058 46.4237 227.058 52.8037V55.424C227.058 61.804 229.85 65.3358 234.891 65.3358C238.708 65.3358 241.442 63.2566 242.012 59.7533H247.651C246.882 66.3611 242.182 70.2632 234.948 70.2632C226.318 70.2632 221.334 65.0794 221.334 56.0222V52.2056C221.334 43.1483 226.318 37.9931 234.948 37.9931C242.182 37.9931 246.882 41.8951 247.651 48.6168ZM257.335 69.665V26.5148H262.86V44.0597H263.288C264.883 40.2431 268.414 38.0785 273.114 38.0785C279.864 38.0785 283.538 42.1514 283.538 49.5852V69.665H277.842V50.9809C277.842 45.7117 275.649 43.1768 271.063 43.1768C266.25 43.1768 263.06 46.5092 263.06 51.522V69.665H257.335ZM303.048 70.1777C297.124 70.1777 293.194 66.4466 293.194 60.8356C293.194 55.3101 297.181 52.0632 304.416 51.6359L312.561 51.2087V48.4744C312.561 44.9142 310.34 42.9204 306.352 42.9204C303.048 42.9204 300.684 44.3445 299.944 46.794H294.361C294.931 41.6672 299.801 38.1924 306.466 38.1924C313.957 38.1924 318.229 41.9521 318.229 48.4744V69.6935H312.789V65.1649H312.248C310.767 68.3549 307.435 70.1777 303.048 70.1777ZM304.814 65.4212C309.257 65.4212 312.561 62.4876 312.561 58.5286V55.2532L305.185 55.6234C301.055 55.8513 298.89 57.5602 298.89 60.5793C298.89 63.5699 301.169 65.4212 304.814 65.4212ZM336.914 30.132H342.553V38.7906H354.829V43.4901H342.638V60.266C342.638 63.342 344.775 65.0225 348.734 65.0225C350.186 65.0225 353.974 64.9655 354.658 64.8801V69.5511C354.031 69.665 349.531 69.779 348.335 69.779C340.388 69.779 336.914 66.9308 336.914 60.266V43.4901H328.711V38.7906H336.914V30.132Z" fill="white" fill-opacity="0.5"/>
<path opacity="0.2" d="M363.354 88.1616L364.57 17.6782" stroke="white" stroke-width="6.07616" stroke-linecap="round"/>
</svg>
