<svg width="166" height="47" viewBox="0 0 166 47" fill="none" xmlns="http://www.w3.org/2000/svg">
<g clip-path="url(#clip0_13_504)">
<path d="M17.978 26.41H5.78848V39.1424H0V7.72607H5.78848V20.888H17.978V7.72607H23.7652V39.1424H17.978V26.41Z" fill="white"/>
<path d="M42.2864 28.9881C42.2864 31.6046 40.1369 33.7336 37.4987 33.7336C34.8598 33.7336 32.7117 31.6046 32.7117 28.9881V15.5322H27.2305V28.9881C27.2305 34.6019 31.8369 39.1684 37.4987 39.1684C43.1594 39.1684 47.7658 34.6019 47.7658 28.9881V15.5322H42.2864V28.9881Z" fill="white"/>
<path d="M82.9586 16.9175C82.9586 14.1587 84.8001 13.2839 86.8163 13.2839C88.4398 13.2839 90.588 14.509 91.9897 15.9977L95.5842 11.7962C93.788 9.38974 90.1492 7.72607 87.1676 7.72607C81.2036 7.72607 76.9065 11.1839 76.9065 16.9175C76.9065 27.5522 90.0176 24.1812 90.0176 30.1348C90.0176 31.9708 88.2205 33.5917 86.1603 33.5917C82.9146 33.5917 81.8618 32.0161 80.3715 30.3527L76.3807 34.4659C78.9252 37.5735 82.0814 39.15 85.8525 39.15C91.5088 39.15 96.0692 35.6486 96.0692 30.1771C96.0692 18.3609 82.9586 22.0376 82.9586 16.9175Z" fill="white"/>
<path d="M164.069 34.1236C160.826 34.1236 159.905 32.7331 159.905 30.6018V21.1677H164.946V16.3857H159.905V10.0806L154.338 12.5585V31.776C154.338 36.6895 157.757 39.1683 162.446 39.1683C163.148 39.1683 164.114 39.1233 164.64 38.9944L166 34.0383C165.386 34.0803 164.685 34.1236 164.069 34.1236Z" fill="white"/>
<path d="M63.1785 15.6892C60.4597 15.6892 58.562 16.4717 56.7292 18.2555V7.91333H51.2305V27.0804C51.2305 34.2545 56.4613 39.1679 62.3388 39.1679C68.8723 39.1679 74.5968 34.1671 74.5968 27.429C74.5968 20.7763 69.3181 15.6892 63.1785 15.6892ZM63.1443 33.6805C59.6997 33.6805 56.9076 30.9118 56.9076 27.4964C56.9076 24.0811 59.6997 21.3123 63.1443 21.3123C66.5886 21.3123 69.3809 24.0811 69.3809 27.4964C69.3809 30.9118 66.5886 33.6805 63.1443 33.6805Z" fill="white"/>
<path d="M122.877 27.1461C122.877 20.408 117.152 15.4072 110.619 15.4072C104.741 15.4072 99.5106 20.3207 99.5106 27.4948V46.6618H105.009V36.3197C106.842 38.1034 108.74 38.886 111.459 38.886C117.598 38.886 122.877 33.7988 122.877 27.1461ZM117.661 27.0788C117.661 30.4941 114.869 33.2629 111.424 33.2629C107.98 33.2629 105.188 30.4941 105.188 27.0788C105.188 23.6633 107.98 20.8947 111.424 20.8947C114.869 20.8947 117.661 23.6633 117.661 27.0788Z" fill="white"/>
<path d="M140.645 15.1432V9.66636C142.087 8.991 143.097 7.54477 143.097 5.86628V5.73973C143.097 3.42349 141.186 1.52833 138.85 1.52833H138.722C136.386 1.52833 134.475 3.42349 134.475 5.73973V5.86628C134.475 7.54477 135.485 8.99121 136.927 9.66646V15.1433C134.781 15.4722 132.819 16.35 131.201 17.6419L116.036 5.94423C116.135 5.56329 116.205 5.17081 116.206 4.75894C116.209 2.13537 114.067 0.00583773 111.421 0.0024452C108.775 -0.000835542 106.628 2.12329 106.624 4.74687C106.621 7.37045 108.763 9.49998 111.409 9.50326C112.271 9.50432 113.069 9.26148 113.769 8.86699L128.687 20.3743C127.418 22.2731 126.675 24.5478 126.675 26.9963C126.675 29.5599 127.492 31.9309 128.872 33.8814L124.335 38.38C123.977 38.2733 123.604 38.1987 123.211 38.1987C121.036 38.1987 119.274 39.9464 119.274 42.1023C119.274 44.2582 121.036 46.006 123.211 46.006C125.385 46.006 127.147 44.2582 127.147 42.1023C127.147 41.7119 127.072 41.3427 126.965 40.987L131.452 36.5372C133.489 38.0792 136.026 39.0053 138.787 39.0053C145.475 39.0053 150.897 33.6287 150.897 26.9963C150.897 20.9923 146.449 16.0321 140.645 15.1432ZM138.787 33.1532C135.357 33.1532 132.577 30.3967 132.577 26.9963C132.577 23.596 135.357 20.8394 138.787 20.8394C142.215 20.8394 144.996 23.596 144.996 26.9963C144.996 30.3967 142.215 33.1532 138.787 33.1532Z" fill="white"/>
</g>
<defs>
<clipPath id="clip0_13_504">
<rect width="166" height="46.6595" fill="white" transform="translate(0 0.00268555)"/>
</clipPath>
</defs>
</svg>
