<svg width="164" height="35" viewBox="0 0 164 35" fill="none" xmlns="http://www.w3.org/2000/svg">
<g clip-path="url(#clip0_13_513)">
<path d="M31.6826 34.3263H25.1544C23.9457 34.3262 22.7552 34.0399 21.6845 33.4919C20.6138 32.9437 19.695 32.1503 19.0066 31.1794L14.9081 25.3927L11.703 20.8683C11.5571 20.6614 11.3474 20.5056 11.1044 20.4237C10.8614 20.3419 10.598 20.3381 10.3527 20.4133C10.1074 20.4883 9.89316 20.6382 9.74138 20.841C9.58959 21.0436 9.50822 21.2885 9.5092 21.5398V32.4445C9.5092 32.9436 9.30634 33.4223 8.94526 33.7752C8.58417 34.128 8.09443 34.3263 7.58378 34.3263H1.92543C1.41502 34.3256 0.925729 34.1271 0.56481 33.7743C0.203892 33.4216 0.000779857 32.9434 0 32.4445V24.3264C0 23.3668 0.193416 22.4164 0.569202 21.5297C0.944987 20.643 1.49579 19.8373 2.19015 19.1587C2.88451 18.4801 3.70884 17.9417 4.61607 17.5745C5.52328 17.2072 6.49564 17.0181 7.47762 17.0181H8.95192C9.04699 17.018 9.14061 16.9954 9.22481 16.9523C9.30901 16.9091 9.3813 16.8467 9.43548 16.7703L14.8963 9.07305L18.8563 3.48234C19.5435 2.51 20.462 1.71534 21.5328 1.16667C22.6037 0.618001 23.7949 0.331746 25.004 0.332521H31.5263C31.6337 0.332531 31.739 0.361179 31.8309 0.415384C31.9228 0.469588 31.9979 0.547294 32.048 0.640111C32.098 0.732929 32.1211 0.837341 32.1151 0.942091C32.1088 1.04684 32.0734 1.14796 32.0128 1.23453L22.4564 14.7242C21.9338 15.4606 21.6536 16.3353 21.6536 17.2315C21.6536 18.1276 21.9338 19.0024 22.4564 19.7386L32.1809 33.4214C32.243 33.5089 32.2791 33.6114 32.2853 33.7176C32.2914 33.8239 32.2674 33.9296 32.2158 34.0232C32.1641 34.117 32.0871 34.1949 31.9929 34.2484C31.8989 34.3019 31.7914 34.3289 31.6826 34.3263Z" fill="white"/>
<path d="M94.9816 33.6903H86.8848V19.2178C86.8848 18.5475 86.6124 17.9047 86.1273 17.4308C85.6424 16.9567 84.9847 16.6905 84.2988 16.6905C83.613 16.6905 82.9553 16.9567 82.4704 17.4308C81.9854 17.9047 81.713 18.5475 81.713 19.2178V33.6788H73.6309V33.1917C73.6309 30.7537 73.6309 24.4598 73.6309 20.5406C73.6293 20.1037 73.5397 19.6712 73.367 19.2681C73.1944 18.8651 72.9422 18.4991 72.6249 18.1914C72.3075 17.8836 71.9311 17.64 71.5174 17.4744C71.1037 17.3089 70.6605 17.2246 70.2135 17.2265H68.4443V33.6903H60.377V9.5753H60.8045C63.8652 9.5753 66.9258 9.60411 69.9864 9.5753C72.935 9.54072 75.5622 10.2727 77.6527 12.4254C77.9918 12.1142 78.3132 11.7914 78.6641 11.5032C80.0411 10.3678 81.5597 9.48596 83.3612 9.15744C88.0465 8.2756 93.2862 11.2727 94.6041 15.6386C94.8491 16.455 94.9751 17.3008 94.9786 18.1516C94.9816 23.2351 94.9816 33.5837 94.9816 33.6903Z" fill="white"/>
<path d="M134.438 33.6903H126.341V19.2178C126.353 18.8789 126.295 18.5412 126.171 18.2248C126.045 17.9083 125.858 17.6196 125.615 17.3759C125.374 17.1321 125.086 16.9381 124.767 16.8058C124.447 16.6734 124.104 16.6052 123.757 16.6052C123.41 16.6052 123.066 16.6734 122.747 16.8058C122.428 16.9381 122.139 17.1321 121.898 17.3759C121.656 17.6196 121.468 17.9083 121.343 18.2248C121.219 18.5412 121.161 18.8789 121.172 19.2178V33.6788H113.078V33.1917C113.078 30.7537 113.078 24.4598 113.078 20.5406C113.078 19.6586 112.72 18.8127 112.082 18.189C111.444 17.5653 110.578 17.215 109.676 17.215H107.907V33.6788H99.8186V9.5753H100.246C103.307 9.5753 106.367 9.60411 109.428 9.5753C112.377 9.54072 115.004 10.2727 117.094 12.4254C117.433 12.1142 117.755 11.7914 118.106 11.5032C119.483 10.3678 121.001 9.48596 122.803 9.15744C127.488 8.2756 132.728 11.2727 134.046 15.6386C134.29 16.4551 134.415 17.301 134.418 18.1516L134.438 33.6903Z" fill="white"/>
<path d="M31.1773 21.6841C31.1773 15.6726 35.7417 10.2462 41.8099 9.24045C46.5925 8.44795 50.5347 10.105 53.6043 13.6929C54.7174 14.9497 55.5535 16.4171 56.0609 18.0037C56.5682 19.5903 56.7357 21.262 56.5529 22.9146C56.2285 26.1884 54.7159 28.9088 52.2479 31.1077C49.8891 33.22 47.0702 34.3669 43.8416 34.3237C39.5749 34.2603 36.2282 32.4016 33.7072 29.0961C32.0463 26.9679 31.1563 24.3606 31.1773 21.6841ZM38.9734 21.6841C38.9747 22.5277 39.1766 23.3593 39.5631 24.1135C39.8813 24.8074 40.3689 25.4144 40.9831 25.881C41.5974 26.3478 42.3195 26.66 43.0859 26.7903C43.8525 26.9206 44.6399 26.865 45.3794 26.6284C46.1188 26.3919 46.7875 25.9814 47.3267 25.4333C48.154 24.5534 48.665 23.4338 48.7821 22.2444C48.8992 21.0548 48.6159 19.8605 47.9755 18.8427C47.3555 17.791 46.3348 17.0217 45.1365 16.7032C43.9382 16.3846 42.6595 16.5424 41.58 17.1424C39.8108 18.1308 39.0854 19.7475 38.9616 21.6726L38.9734 21.6841Z" fill="white"/>
<path d="M163.652 21.1857C163.667 27.8946 158.769 33.4536 152.491 34.226C148.14 34.7619 144.51 33.2548 141.582 30.1194C139.728 28.182 138.573 25.7058 138.292 23.0675C137.905 19.4537 138.985 16.2664 141.361 13.5028C143.274 11.1917 145.998 9.65818 149.004 9.20027C152.882 8.60085 156.302 9.67001 159.2 12.2089C162.099 14.7477 163.585 17.889 163.652 21.1857ZM155.851 21.6871C155.847 20.8729 155.66 20.0697 155.299 19.3357C153.659 15.9034 149.626 15.9293 147.757 17.7333C147.017 18.3982 146.482 19.2505 146.21 20.1954C145.936 21.1402 145.938 22.1404 146.211 23.0848C146.951 25.9406 149.749 27.4824 152.483 26.5949C154.438 25.9637 155.851 23.9033 155.851 21.6871Z" fill="white"/>
</g>
<defs>
<clipPath id="clip0_13_513">
<rect width="164" height="34" fill="white" transform="translate(0 0.33252)"/>
</clipPath>
</defs>
</svg>
