<svg width="132" height="32" viewBox="0 0 132 32" fill="none" xmlns="http://www.w3.org/2000/svg">
<g id="Group">
<path id="Vector" d="M19.9031 0.723907C17.2684 0.724093 14.7417 1.78984 12.8787 3.68673C11.0156 5.58362 9.96893 8.1563 9.96875 10.8389V11.0769H0V31.3909H20.2125V20.9469C22.8232 20.8706 25.2993 19.7503 27.1048 17.8288C28.9103 15.9072 29.8998 13.3389 29.8591 10.68C29.8184 8.02101 28.7508 5.48536 26.8875 3.62198C25.0241 1.7586 22.5149 0.717438 19.9031 0.723907ZM3.4375 27.8909V14.5769H9.96875V20.9539H16.775V27.8909H3.4375ZM20.2125 17.4469C20.1094 17.4539 20.0063 17.4539 19.9031 17.4539H13.4062V10.8389C13.4063 9.54402 13.7797 8.27764 14.48 7.19676C15.1803 6.11589 16.1768 5.26805 17.3459 4.75838C18.515 4.2487 19.8053 4.0996 21.0569 4.32956C22.3084 4.55951 23.4662 5.15841 24.3866 6.052C25.307 6.94559 25.9496 8.09458 26.2347 9.35651C26.5197 10.6184 26.4348 11.9378 25.9904 13.1511C25.546 14.3643 24.7616 15.4181 23.7345 16.1817C22.7074 16.9453 21.4828 17.3852 20.2125 17.4469Z" fill="url(#paint0_linear_2490_32)"/>
<path id="Vector_2" d="M41.1483 11.5424H38.5688V14.0624H36.9188V16.1624H38.5688V20.2056C38.5573 20.615 38.6367 21.0218 38.8011 21.3956C38.947 21.7117 39.1685 21.9854 39.4453 22.1915C39.7345 22.4027 40.0615 22.5542 40.4078 22.6374C40.8017 22.7342 41.2058 22.7812 41.611 22.7774C41.9153 22.7768 42.2194 22.759 42.5219 22.7242C42.8269 22.6906 43.127 22.6201 43.4156 22.5142V20.3274C43.2707 20.4452 43.094 20.5153 42.9089 20.5283C42.7294 20.5541 42.5485 20.5686 42.3672 20.5717C42.1414 20.5811 41.9162 20.5424 41.7058 20.4583C41.5517 20.3932 41.4221 20.2797 41.3359 20.1342C41.2514 19.9806 41.1988 19.811 41.1813 19.6358C41.1574 19.4237 41.1459 19.2103 41.1469 18.9967V16.1617H43.4156V14.0617H41.1469L41.1483 11.5424Z" fill="url(#paint1_linear_2490_32)"/>
<path id="Vector_3" d="M51.5556 14.9899C51.248 14.6051 50.8443 14.3118 50.3869 14.1408C49.7875 13.9299 49.1555 13.8322 48.5217 13.8524C47.8429 13.8505 47.1688 13.9657 46.5279 14.1933C45.9022 14.4111 45.3282 14.76 44.8429 15.2174L46.2179 16.6524C46.4811 16.3461 46.7991 16.0936 47.1549 15.9083C47.5148 15.7251 47.9124 15.6322 48.3147 15.6374C48.7374 15.6287 49.1491 15.7745 49.4752 16.0483C49.6357 16.1823 49.7634 16.3524 49.8485 16.5451C49.9335 16.7379 49.9735 16.948 49.9654 17.1592C49.6093 17.1592 49.2225 17.1653 48.8049 17.1774C48.3849 17.1887 47.9658 17.2238 47.5495 17.2824C47.1392 17.3389 46.734 17.4295 46.3382 17.5533C45.9665 17.6675 45.6152 17.842 45.298 18.0699C44.9967 18.2889 44.7497 18.5766 44.5768 18.9099C44.3884 19.2955 44.2967 19.7226 44.31 20.1531C44.3014 20.5463 44.3841 20.9361 44.5514 21.2906C44.706 21.6106 44.9289 21.8914 45.2038 22.1124C45.4875 22.3392 45.8111 22.5086 46.1574 22.6115C46.5226 22.7233 46.9021 22.7794 47.2835 22.7781C47.7992 22.7802 48.3103 22.6791 48.7877 22.4806C49.2606 22.2848 49.6605 21.9418 49.9304 21.5006H49.9654V22.5688H52.3366V18.2449C52.344 17.6135 52.2864 16.9831 52.1647 16.364C52.0696 15.8639 51.861 15.3933 51.5556 14.9899ZM49.9661 19.3999C49.9719 19.6438 49.9153 19.885 49.8018 20.0999C49.6954 20.2956 49.5457 20.4633 49.3645 20.5899C49.1719 20.7222 48.9598 20.8223 48.7362 20.8867C48.4988 20.9576 48.2527 20.9932 48.0054 20.9924C47.7155 20.9913 47.4311 20.9129 47.1804 20.7649C47.056 20.6985 46.9528 20.5974 46.8829 20.4734C46.813 20.3494 46.7793 20.2077 46.7857 20.0649C46.7789 19.9367 46.8009 19.8086 46.85 19.6903C46.899 19.5721 46.9739 19.4668 47.069 19.3824C47.2704 19.2123 47.5046 19.0872 47.7565 19.0149C48.0303 18.932 48.3127 18.882 48.598 18.8658C48.8909 18.8481 49.1345 18.8394 49.3288 18.8399H49.9654L49.9661 19.3999Z" fill="url(#paint2_linear_2490_32)"/>
<path id="Vector_4" d="M61.4213 15.0074C61.1929 14.6411 60.8686 14.3471 60.4849 14.1583C59.9876 13.9348 59.4467 13.8302 58.9036 13.8524C58.6128 13.8496 58.3232 13.8909 58.0443 13.9749C57.7971 14.0493 57.5601 14.1551 57.3389 14.2899C57.1426 14.4104 56.9633 14.5576 56.8061 14.7274C56.6692 14.8733 56.5535 15.0383 56.4623 15.2174H56.4279V14.0624H53.9529V22.5674H56.5311V18.3324C56.53 18.0632 56.5473 17.7942 56.5826 17.5274C56.612 17.2855 56.6847 17.0511 56.7971 16.8358C56.9065 16.6306 57.0705 16.4608 57.2701 16.3458C57.5187 16.2129 57.7974 16.1494 58.0779 16.1617C58.3263 16.1359 58.576 16.1962 58.7865 16.3329C58.997 16.4696 59.156 16.6747 59.2378 16.9149C59.3261 17.1472 59.3783 17.3921 59.3924 17.6408C59.4099 17.9036 59.4186 18.1574 59.4186 18.4024V22.5674H61.9967V17.8774C61.9993 17.3438 61.9586 16.811 61.875 16.2842C61.8088 15.8321 61.6546 15.398 61.4213 15.0074Z" fill="url(#paint3_linear_2490_32)"/>
<path id="Vector_5" d="M70.6509 14.9899C70.3433 14.6051 69.9396 14.3118 69.4822 14.1408C68.8831 13.9301 68.2512 13.8323 67.6177 13.8524C66.939 13.8508 66.2649 13.966 65.6239 14.1933C64.9977 14.4109 64.4232 14.7598 63.9375 15.2174L65.3125 16.6524C65.5757 16.3464 65.8934 16.0939 66.2489 15.9083C66.609 15.7253 67.0069 15.6324 67.4094 15.6374C67.8318 15.6287 68.2433 15.7745 68.5692 16.0483C68.7299 16.1821 68.8578 16.3522 68.9429 16.545C69.0279 16.7378 69.0678 16.948 69.0594 17.1592C68.7046 17.1592 68.318 17.1653 67.8996 17.1774C67.4795 17.1888 67.0604 17.2238 66.6442 17.2824C66.2338 17.3388 65.8286 17.4294 65.4328 17.5533C65.061 17.6674 64.7098 17.8419 64.3926 18.0699C64.0915 18.2893 63.8444 18.5769 63.6708 18.9099C63.4826 19.2956 63.3912 19.7227 63.4047 20.1531C63.3965 20.5462 63.4789 20.9358 63.6453 21.2906C63.8006 21.6104 64.0237 21.891 64.2984 22.1124C64.5821 22.3392 64.9058 22.5086 65.252 22.6115C65.6172 22.7233 65.9967 22.7795 66.3781 22.7781C66.8936 22.7803 67.4045 22.6792 67.8817 22.4806C68.3548 22.2849 68.7549 21.9419 69.025 21.5006H69.0594V22.5688H71.4313V18.2449C71.4387 17.6136 71.3811 16.9832 71.2594 16.364C71.1642 15.8641 70.9558 15.3936 70.6509 14.9899ZM69.0608 19.3999C69.0667 19.6437 69.0106 19.8848 68.8978 20.0999C68.7911 20.2958 68.6409 20.4636 68.4592 20.5899C68.267 20.7226 68.0551 20.8228 67.8315 20.8867C67.5944 20.9576 67.3485 20.9932 67.1014 20.9924C66.8116 20.9913 66.5271 20.9128 66.2764 20.7649C66.1519 20.6986 66.0486 20.5975 65.9786 20.4735C65.9086 20.3496 65.8747 20.2078 65.8811 20.0649C65.8746 19.9368 65.8967 19.8088 65.9457 19.6906C65.9948 19.5723 66.0695 19.467 66.1643 19.3824C66.366 19.2128 66.6001 19.0877 66.8518 19.0149C67.1261 18.9321 67.409 18.8821 67.6947 18.8658C67.9869 18.8483 68.2296 18.8399 68.4248 18.8399H69.0608V19.3999Z" fill="url(#paint4_linear_2490_32)"/>
<path id="Vector_6" d="M80.5159 15.0074C80.2875 14.6411 79.9632 14.347 79.5795 14.1583C79.0823 13.9348 78.5414 13.8301 77.9983 13.8524C77.7074 13.8496 77.4178 13.8909 77.1389 13.9749C76.8965 14.0469 76.6651 14.1529 76.4514 14.2899C76.2653 14.4104 76.0974 14.5577 75.9529 14.7274C75.8266 14.8709 75.7276 15.0371 75.6608 15.2174H75.625V9.3374H73.0469V22.5674H75.625V18.3324C75.624 18.0632 75.6412 17.7942 75.6766 17.5274C75.7059 17.2853 75.7788 17.0509 75.8917 16.8358C76.0009 16.6306 76.1646 16.4608 76.3641 16.3458C76.6127 16.213 76.8914 16.1495 77.1719 16.1617C77.4203 16.1359 77.6699 16.1962 77.8804 16.3329C78.091 16.4696 78.25 16.6747 78.3317 16.9149C78.4203 17.1471 78.4725 17.3921 78.4864 17.6408C78.5033 17.9035 78.512 18.1574 78.5125 18.4024V22.5674H81.0906V17.8774C81.0938 17.3438 81.0534 16.8109 80.9696 16.2842C80.9034 15.8321 80.7492 15.398 80.5159 15.0074Z" fill="url(#paint5_linear_2490_32)"/>
<path id="Vector_7" d="M88.4221 17.9299C88.0938 17.7424 87.7407 17.6038 87.3737 17.5183L86.3246 17.2733C86.0475 17.2139 85.777 17.126 85.5174 17.0108C85.4239 16.9764 85.3431 16.9133 85.2862 16.8301C85.2293 16.747 85.1991 16.648 85.1998 16.5467C85.1917 16.4353 85.2169 16.3239 85.2719 16.2273C85.327 16.1306 85.4095 16.0531 85.5085 16.0049C85.7056 15.9022 85.9237 15.8482 86.1451 15.8474C86.4322 15.8388 86.7173 15.8993 86.9771 16.0239C87.237 16.1486 87.4642 16.334 87.6404 16.5649L89.2217 14.9724C88.8337 14.5535 88.3403 14.2508 87.7951 14.0974C87.2533 13.937 86.6922 13.8545 86.1279 13.8524C85.6931 13.8524 85.26 13.9081 84.8389 14.0183C84.4361 14.1198 84.0548 14.2949 83.7134 14.5349C83.3871 14.7678 83.1168 15.073 82.9228 15.4274C82.7137 15.8249 82.6102 16.271 82.6224 16.7217C82.5998 17.1732 82.7104 17.6213 82.94 18.0083C83.1433 18.3215 83.4209 18.5774 83.7471 18.7524C84.0787 18.929 84.4314 19.0613 84.7962 19.1458C85.168 19.2336 85.5174 19.3152 85.8447 19.3908C86.1241 19.4505 86.3954 19.5445 86.6525 19.6708C86.7481 19.7126 86.8293 19.7823 86.8858 19.8712C86.9424 19.9601 86.9717 20.064 86.9701 20.1699C86.9726 20.2799 86.9383 20.3874 86.8728 20.475C86.8074 20.5625 86.7147 20.6247 86.6099 20.6515C86.35 20.742 86.0767 20.7862 85.8021 20.7824C85.4469 20.7905 85.0953 20.7093 84.7784 20.5458C84.4687 20.3733 84.1968 20.1382 83.9795 19.8549L82.4154 21.6217C82.8308 22.0553 83.3533 22.3667 83.9279 22.5233C84.5039 22.6899 85.0995 22.7754 85.6982 22.7774C86.1539 22.7765 86.6084 22.7325 87.0561 22.6458C87.4909 22.5667 87.9094 22.4129 88.2936 22.1908C88.6552 21.9798 88.964 21.6863 89.1956 21.3333C89.4437 20.9275 89.5664 20.4551 89.5476 19.9774C89.5696 19.5259 89.459 19.078 89.2299 18.6908C89.0237 18.3756 88.7468 18.1148 88.4221 17.9299Z" fill="url(#paint6_linear_2490_32)"/>
<path id="Vector_8" d="M94.2906 11.5424H91.7125V14.0624H90.0625V16.1624H91.7125V20.2056C91.701 20.615 91.7805 21.0218 91.9449 21.3956C92.0907 21.7119 92.3125 21.9856 92.5897 22.1915C92.8788 22.4029 93.2058 22.5544 93.5523 22.6374C93.9461 22.7342 94.3502 22.7812 94.7554 22.7774C95.0598 22.7768 95.3639 22.7591 95.6663 22.7242C95.9714 22.6907 96.2714 22.6202 96.5601 22.5142V20.3274C96.4152 20.4453 96.2384 20.5154 96.0534 20.5283C95.8741 20.5541 95.6934 20.5686 95.5123 20.5717C95.2863 20.5811 95.0608 20.5425 94.8503 20.4583C94.6964 20.3932 94.567 20.2796 94.4811 20.1342C94.396 19.9808 94.3431 19.8111 94.3257 19.6358C94.3018 19.4237 94.2903 19.2103 94.2913 18.9967V16.1617H96.5601V14.0617H94.2913L94.2906 11.5424Z" fill="url(#paint7_linear_2490_32)"/>
<path id="Vector_9" d="M103.331 18.2967C103.332 18.5661 103.314 18.8353 103.28 19.1024C103.25 19.3441 103.177 19.5782 103.064 19.7933C102.955 19.998 102.791 20.1676 102.592 20.2833C102.344 20.416 102.065 20.4795 101.784 20.4674C101.536 20.4935 101.286 20.4335 101.075 20.2969C100.865 20.1603 100.706 19.9552 100.624 19.7149C100.536 19.4825 100.483 19.2377 100.469 18.989C100.452 18.7265 100.444 18.4717 100.444 18.2274V14.0624H97.8656V18.7524C97.8625 19.2853 97.8998 19.8177 97.977 20.3449C98.038 20.7973 98.1902 21.2319 98.4239 21.6217C98.6539 21.9899 98.9816 22.2843 99.3692 22.4708C99.8696 22.6941 100.413 22.799 100.959 22.7774C101.25 22.7798 101.54 22.7385 101.819 22.6549C102.065 22.5803 102.302 22.4744 102.523 22.3399C102.718 22.2211 102.895 22.0737 103.047 21.9024C103.181 21.752 103.299 21.5878 103.399 21.4124H103.434V22.5681H105.909V14.0624H103.331V18.2967Z" fill="url(#paint8_linear_2490_32)"/>
<path id="Vector_10" d="M113.919 14.9724H113.884C113.598 14.5728 113.199 14.2707 112.741 14.1058C112.258 13.9338 111.749 13.848 111.237 13.8524C110.683 13.8427 110.134 13.9718 109.639 14.2283C109.175 14.4743 108.768 14.8173 108.444 15.2349C108.111 15.6672 107.855 16.1558 107.688 16.6783C107.509 17.2285 107.419 17.8046 107.421 18.3842C107.415 18.9866 107.514 19.5854 107.713 20.1524C107.896 20.6689 108.18 21.1421 108.547 21.5433C108.911 21.9371 109.354 22.2474 109.845 22.4533C110.379 22.6751 110.952 22.7854 111.529 22.7774C111.811 22.7779 112.092 22.7366 112.362 22.6549C112.62 22.5782 112.868 22.4725 113.102 22.3399C113.312 22.2208 113.508 22.0768 113.686 21.9108C113.836 21.7712 113.972 21.6156 114.09 21.4467H114.125V22.5667H116.497V9.33673H113.919V14.9724ZM113.584 19.8724C113.167 20.2563 112.625 20.4688 112.062 20.4688C111.5 20.4688 110.958 20.2563 110.541 19.8724C110.191 19.4318 110 18.8821 110 18.3153C110 17.7485 110.191 17.1988 110.541 16.7581C110.958 16.3743 111.5 16.1617 112.062 16.1617C112.625 16.1617 113.167 16.3743 113.584 16.7581C113.934 17.1988 114.125 17.7485 114.125 18.3153C114.125 18.8821 113.934 19.4318 113.584 19.8724Z" fill="url(#paint9_linear_2490_32)"/>
<path id="Vector_11" d="M121.172 14.0624H118.594V22.5674H121.172V14.0624Z" fill="url(#paint10_linear_2490_32)"/>
<path id="Vector_12" d="M119.883 9.86242C119.536 9.86214 119.201 9.98417 118.933 10.2077C118.665 10.4312 118.482 10.7424 118.414 11.0883C118.346 11.4341 118.398 11.7932 118.561 12.1042C118.725 12.4153 118.989 12.6591 119.309 12.7941C119.629 12.9291 119.985 12.947 120.316 12.8446C120.647 12.7423 120.934 12.5261 121.126 12.2328C121.319 11.9396 121.405 11.5875 121.371 11.2366C121.337 10.8856 121.185 10.5576 120.94 10.3083C120.803 10.1644 120.638 10.0506 120.457 9.97393C120.275 9.89724 120.08 9.85929 119.883 9.86242Z" fill="url(#paint11_linear_2490_32)"/>
<path id="Vector_13" d="M131.639 16.4774C131.409 15.9433 131.072 15.4635 130.65 15.0683C130.222 14.671 129.719 14.3648 129.173 14.1674C127.999 13.7474 126.72 13.7474 125.546 14.1674C124.999 14.3646 124.497 14.6709 124.068 15.0683C123.647 15.4635 123.31 15.9433 123.08 16.4774C122.841 17.0597 122.719 17.6842 122.719 18.3149C122.719 18.9457 122.841 19.5702 123.08 20.1524C123.31 20.6864 123.647 21.1659 124.068 21.5608C124.497 21.9588 124.999 22.2651 125.546 22.4617C126.719 22.8826 127.999 22.8826 129.173 22.4617C129.72 22.2649 130.222 21.9586 130.65 21.5608C131.072 21.1659 131.409 20.6864 131.639 20.1524C131.877 19.5702 132 18.9457 132 18.3149C132 17.6842 131.877 17.0597 131.639 16.4774ZM128.881 19.8717C128.464 20.2556 127.922 20.4681 127.359 20.4681C126.797 20.4681 126.255 20.2556 125.838 19.8717C125.488 19.431 125.297 18.8814 125.297 18.3146C125.297 17.7478 125.488 17.1981 125.838 16.7574C126.255 16.3736 126.797 16.161 127.359 16.161C127.922 16.161 128.464 16.3736 128.881 16.7574C129.231 17.1981 129.422 17.7478 129.422 18.3146C129.422 18.8814 129.231 19.431 128.881 19.8717Z" fill="url(#paint12_linear_2490_32)"/>
</g>
<defs>
<linearGradient id="paint0_linear_2490_32" x1="14.9301" y1="4.48059" x2="26.0583" y2="39.6574" gradientUnits="userSpaceOnUse">
<stop stop-color="#3371F2"/>
<stop offset="1" stop-color="#0B3FAD"/>
</linearGradient>
<linearGradient id="paint1_linear_2490_32" x1="40.1672" y1="12.9187" x2="46.0499" y2="23.9623" gradientUnits="userSpaceOnUse">
<stop stop-color="#3371F2"/>
<stop offset="1" stop-color="#0B3FAD"/>
</linearGradient>
<linearGradient id="paint2_linear_2490_32" x1="48.323" y1="14.9435" x2="51.777" y2="25.0266" gradientUnits="userSpaceOnUse">
<stop stop-color="#3371F2"/>
<stop offset="1" stop-color="#0B3FAD"/>
</linearGradient>
<linearGradient id="paint3_linear_2490_32" x1="57.9749" y1="14.9174" x2="61.2791" y2="24.8151" gradientUnits="userSpaceOnUse">
<stop stop-color="#3371F2"/>
<stop offset="1" stop-color="#0B3FAD"/>
</linearGradient>
<linearGradient id="paint4_linear_2490_32" x1="67.4176" y1="14.9436" x2="70.8716" y2="25.0266" gradientUnits="userSpaceOnUse">
<stop stop-color="#3371F2"/>
<stop offset="1" stop-color="#0B3FAD"/>
</linearGradient>
<linearGradient id="paint5_linear_2490_32" x1="77.0688" y1="10.9581" x2="83.799" y2="24.2427" gradientUnits="userSpaceOnUse">
<stop stop-color="#3371F2"/>
<stop offset="1" stop-color="#0B3FAD"/>
</linearGradient>
<linearGradient id="paint6_linear_2490_32" x1="85.9829" y1="14.9457" x2="89.7613" y2="24.7519" gradientUnits="userSpaceOnUse">
<stop stop-color="#3371F2"/>
<stop offset="1" stop-color="#0B3FAD"/>
</linearGradient>
<linearGradient id="paint7_linear_2490_32" x1="93.3113" y1="12.9187" x2="99.1936" y2="23.9628" gradientUnits="userSpaceOnUse">
<stop stop-color="#3371F2"/>
<stop offset="1" stop-color="#0B3FAD"/>
</linearGradient>
<linearGradient id="paint8_linear_2490_32" x1="101.887" y1="15.1303" x2="105.191" y2="25.0276" gradientUnits="userSpaceOnUse">
<stop stop-color="#3371F2"/>
<stop offset="1" stop-color="#0B3FAD"/>
</linearGradient>
<linearGradient id="paint9_linear_2490_32" x1="111.959" y1="10.9833" x2="118.363" y2="25.0225" gradientUnits="userSpaceOnUse">
<stop stop-color="#3371F2"/>
<stop offset="1" stop-color="#0B3FAD"/>
</linearGradient>
<linearGradient id="paint10_linear_2490_32" x1="119.883" y1="15.1042" x2="125.248" y2="20.3843" gradientUnits="userSpaceOnUse">
<stop stop-color="#3371F2"/>
<stop offset="1" stop-color="#0B3FAD"/>
</linearGradient>
<linearGradient id="paint11_linear_2490_32" x1="119.882" y1="10.2356" x2="120.98" y2="13.7372" gradientUnits="userSpaceOnUse">
<stop stop-color="#3371F2"/>
<stop offset="1" stop-color="#0B3FAD"/>
</linearGradient>
<linearGradient id="paint12_linear_2490_32" x1="127.359" y1="14.9457" x2="130.426" y2="25.2993" gradientUnits="userSpaceOnUse">
<stop stop-color="#3371F2"/>
<stop offset="1" stop-color="#0B3FAD"/>
</linearGradient>
</defs>
</svg>
