<svg width="123" height="53" viewBox="0 0 123 53" fill="none" xmlns="http://www.w3.org/2000/svg">
<path d="M54.788 41.8718C53.8523 41.8718 52.9044 41.6776 51.9929 41.2769L32.549 32.6207C29.0734 31.0788 27.5057 26.9874 29.0491 23.5152L37.7138 4.09023C39.2572 0.61801 43.3525 -0.948128 46.8281 0.593729L66.2721 9.24999C69.7477 10.7918 71.3154 14.8832 69.772 18.3554L61.1073 37.7804C59.9528 40.3542 57.4251 41.8718 54.788 41.8718ZM53.6092 37.6347C55.0797 38.2903 56.8053 37.6226 57.4616 36.1657L66.1263 16.7407C66.7825 15.2717 66.1141 13.5478 64.6558 12.8922L45.1997 4.23591C43.7293 3.58032 42.0036 4.24805 41.3474 5.70493L32.6827 25.1299C32.0264 26.5989 32.6948 28.3229 34.1531 28.9785L53.6092 37.6347Z" fill="white"/>
<path d="M115.781 41.8839H94.4896C90.6859 41.8839 87.587 38.788 87.587 34.988V13.7176C87.587 9.91763 90.6859 6.82178 94.4896 6.82178H115.781C119.584 6.82178 122.683 9.91763 122.683 13.7176V34.988C122.683 38.788 119.584 41.8839 115.781 41.8839ZM94.4896 10.8039C92.8855 10.8039 91.573 12.1151 91.573 13.7176V34.988C91.573 36.5906 92.8855 37.9017 94.4896 37.9017H115.781C117.385 37.9017 118.697 36.5906 118.697 34.988V13.7176C118.697 12.1151 117.385 10.8039 115.781 10.8039H94.4896Z" fill="white"/>
<path d="M36.0487 17.6152L33.1807 24.0254C33.1442 24.0983 33.1078 24.159 33.0713 24.2197L34.1893 31.1156C34.4445 32.706 33.363 34.1993 31.7831 34.4542L10.7594 37.8536C9.99376 37.975 9.216 37.7929 8.58407 37.3437C7.95215 36.8945 7.53896 36.2146 7.41744 35.4498L4.01475 14.4465C3.89322 13.6816 4.07551 12.9046 4.52515 12.2733C4.97479 11.642 5.65533 11.2292 6.42094 11.1078L27.4447 7.70845C27.6027 7.68417 27.7607 7.67203 27.9065 7.67203C29.304 7.67203 30.5557 8.69184 30.7866 10.1244L31.9168 17.0689L34.882 10.428L34.724 9.49313C34.1164 5.74168 30.5679 3.18001 26.8128 3.78704L5.78901 7.18641C3.97829 7.46564 2.37416 8.44903 1.30475 9.94233C0.223176 11.4356 -0.202161 13.2567 0.0894988 15.0778L3.49219 36.0811C3.78385 37.9022 4.7682 39.4926 6.26295 40.5731C7.44174 41.4351 8.83928 41.8721 10.2854 41.8721C10.65 41.8721 11.0267 41.8479 11.4034 41.7872L32.4272 38.3878C36.1823 37.7808 38.7465 34.2357 38.1389 30.4842L36.0487 17.6152Z" fill="white"/>
<path d="M61.2643 27.6434L64.351 20.7354L63.476 14.3131C63.3666 13.5482 63.5732 12.7833 64.0472 12.1642C64.5211 11.545 65.2017 11.1443 65.9794 11.0472L87.0761 8.18204C87.2098 8.1699 87.3434 8.15776 87.4771 8.15776C88.1091 8.15776 88.7167 8.36415 89.2392 8.75265C89.3365 8.82549 89.4215 8.91048 89.5066 8.98332C90.4423 7.99993 91.6697 7.29578 93.043 6.99226C92.6541 6.45807 92.1923 5.98459 91.6454 5.57181C90.175 4.45487 88.3643 3.98139 86.5414 4.2242L65.4204 7.08939C63.5975 7.3322 61.9691 8.27917 60.8632 9.74818C59.7452 11.2172 59.2713 13.0261 59.5143 14.8472L61.2643 27.6434Z" fill="white"/>
<path d="M97.1622 31.2007L94.3914 10.8044C92.8359 10.853 91.5842 12.1399 91.5842 13.706V19.6914L93.2248 31.7349C93.3342 32.4997 93.1276 33.2646 92.6536 33.8837C92.1797 34.5029 91.4991 34.9036 90.7214 35.0007L69.6247 37.8659C68.8591 37.9751 68.0935 37.7687 67.4737 37.2953C66.8539 36.8218 66.4529 36.1419 66.3557 35.3649L65.3835 28.2141L62.2968 35.1221L62.4061 35.8991C62.6492 37.7202 63.5971 39.347 65.0675 40.4518C66.2828 41.3745 67.7289 41.8601 69.2358 41.8601C69.5518 41.8601 69.8677 41.8358 70.1837 41.7994L91.2561 38.9585C93.079 38.7157 94.7074 37.7687 95.8133 36.2997C96.9313 34.8307 97.4052 33.0218 97.1622 31.2007Z" fill="white"/>
<path d="M37.6393 51.9732L40.6531 47.5297H38.174C38.0403 47.5297 37.931 47.4205 37.931 47.2869V46.692C37.931 46.5585 38.0403 46.4492 38.174 46.4492H42.2451C42.3788 46.4492 42.4881 46.5585 42.4881 46.692V46.9227C42.4881 46.9713 42.476 47.0198 42.4517 47.0562L39.4986 51.4997H42.1479C42.2815 51.4997 42.3909 51.609 42.3909 51.7425V52.3374C42.3909 52.471 42.2815 52.5802 42.1479 52.5802H37.8459C37.7122 52.5802 37.6028 52.471 37.6028 52.3374V52.1189C37.5907 52.0582 37.615 52.0096 37.6393 51.9732Z" fill="white"/>
<path d="M50.326 49.4721C50.326 47.651 51.6628 46.3398 53.4857 46.3398C55.3693 46.3398 56.6453 47.6268 56.6453 49.4843C56.6453 51.3661 55.345 52.6651 53.4614 52.6651C51.5656 52.6651 50.326 51.3661 50.326 49.4721ZM55.1992 49.4964C55.1992 48.3916 54.6645 47.4446 53.4614 47.4446C52.2461 47.4446 51.7843 48.428 51.7843 49.545C51.7843 50.6012 52.3555 51.5724 53.5222 51.5724C54.7252 51.5603 55.1992 50.5284 55.1992 49.4964Z" fill="white"/>
<path d="M65.2855 46.4368H66.1848C66.3185 46.4368 66.4279 46.546 66.4279 46.6796V48.9377H68.9799V46.6796C68.9799 46.546 69.0893 46.4368 69.2229 46.4368H70.1222C70.2559 46.4368 70.3653 46.546 70.3653 46.6796V52.325C70.3653 52.4585 70.2559 52.5678 70.1222 52.5678H69.2351C69.1014 52.5678 68.992 52.4585 68.992 52.325V50.0425H66.44V52.325C66.44 52.4585 66.3306 52.5678 66.197 52.5678H65.2977C65.164 52.5678 65.0546 52.4585 65.0546 52.325V46.6796C65.0425 46.546 65.1519 46.4368 65.2855 46.4368Z" fill="white"/>
<path d="M78.7637 49.4721C78.7637 47.651 80.1004 46.3398 81.9233 46.3398C83.8069 46.3398 85.083 47.6268 85.083 49.4843C85.083 51.3661 83.7826 52.6651 81.899 52.6651C80.0032 52.6651 78.7637 51.3661 78.7637 49.4721ZM83.6247 49.4964C83.6247 48.3916 83.0899 47.4446 81.8869 47.4446C80.6716 47.4446 80.2098 48.428 80.2098 49.545C80.2098 50.6012 80.781 51.5724 81.9476 51.5724C83.1507 51.5603 83.6247 50.5284 83.6247 49.4964Z" fill="white"/>
</svg>
